<svg viewBox="0 0 24 20" xmlns="http://www.w3.org/2000/svg">
    <path fill-rule="evenodd" clip-rule="evenodd"
        d="M2.03705 8.29326C8.23854 5.59137 12.3738 3.81013 14.4429 2.94952C20.3507 0.492298 21.5782 0.0654535 22.3783 0.0513588C22.5543 0.0482588 22.9478 0.0918712 23.2027 0.298685C23.4179 0.473314 23.4771 0.709213 23.5054 0.87478C23.5338 1.04035 23.569 1.41752 23.541 1.71222C23.2209 5.07597 21.8356 13.2389 21.1309 17.0063C20.8327 18.6005 20.2455 19.135 19.6771 19.1873C18.4417 19.301 17.5036 18.3709 16.3071 17.5866C14.4348 16.3593 13.3771 15.5953 11.5597 14.3976C9.45943 13.0136 10.821 12.2529 12.0179 11.0097C12.3312 10.6843 17.7742 5.73347 17.8795 5.28435C17.8927 5.22818 17.9049 5.01881 17.7806 4.90825C17.6562 4.79769 17.4726 4.8355 17.3401 4.86557C17.1523 4.90819 14.1613 6.88513 8.36707 10.7964C7.51808 11.3794 6.74909 11.6634 6.0601 11.6485C5.30055 11.6321 3.83948 11.2191 2.75332 10.866C1.4211 10.433 0.36228 10.204 0.45448 9.46855C0.502503 9.08548 1.03003 8.69372 2.03705 8.29326Z" />
    <defs>
    </defs>
</svg>