<svg xmlns="http://www.w3.org/2000/svg" viewBox="0 0 100 100">
    <path
        d="M91.112 80.72a11.363 11.363 0 0 0-.334-1.675c-1.764-6.074-4.096-9.921-6.411-12.389-3.808-4.06-7.578-4.381-8.729-4.647-.218-.047-.436-.097-.657-.136-.703-.652-1.261-1.562-1.692-2.652-1.085-2.729-1.403-6.608-1.373-10.463.062-6.939 1.279-13.814 1.279-13.814v-.002c0-.96-.022-1.882-.058-2.784-.013-.286-.032-.557-.046-.836-.033-.61-.068-1.21-.121-1.791-.026-.308-.057-.604-.086-.905a44.617 44.617 0 0 0-.187-1.572 40.48 40.48 0 0 0-.376-2.387c-.046-.229-.085-.466-.129-.693a45.307 45.307 0 0 0-.453-1.978c-.009-.023-.013-.046-.02-.074a33.91 33.91 0 0 0-.558-1.906l-.188-.532a25.61 25.61 0 0 0-.682-1.814c-.147-.36-.307-.709-.464-1.047a16.526 16.526 0 0 0-.257-.55 35.934 35.934 0 0 0-.523-.99c-.086-.15-.165-.302-.249-.447-.236-.41-.489-.807-.735-1.185-.024-.038-.046-.078-.074-.118a21.072 21.072 0 0 0-.86-1.181c-.085-.11-.173-.211-.263-.315a18.39 18.39 0 0 0-.638-.752c-.112-.12-.222-.232-.334-.354a15.904 15.904 0 0 0-.604-.613 16.631 16.631 0 0 0-.34-.322 19.14 19.14 0 0 0-.644-.558 13.458 13.458 0 0 0-1.141-.875 2.664 2.664 0 0 0-.135-.102c-.32-.224-.649-.431-.976-.626-.095-.055-.188-.105-.281-.158a14.235 14.235 0 0 0-.692-.379c-.122-.064-.241-.121-.358-.18-.211-.101-.414-.199-.621-.29-.123-.054-.24-.104-.362-.155a13.822 13.822 0 0 0-.628-.246c-.108-.041-.221-.083-.322-.123a15.901 15.901 0 0 0-.729-.241c-.065-.019-.136-.045-.2-.063-.302-.09-.595-.168-.884-.24-.098-.023-.186-.041-.278-.06-.2-.045-.396-.091-.584-.13l-.328-.061a20.483 20.483 0 0 0-.813-.128 13.194 13.194 0 0 0-.467-.057c-.102-.009-.198-.023-.29-.033-.161-.014-.315-.028-.469-.038-.079-.004-.158-.013-.229-.019-.213-.014-.407-.017-.6-.026-.088-.002-.162-.002-.25-.002l-.289-.002c-.467 0-.844.018-1.108.042a2.957 2.957 0 0 0-.317.025l-.06.006c-.053.003-.084.009-.084.009-.274-.018-.544-.03-.813-.039-.268.007-.538.021-.812.035l-.084-.009-.06-.005c-.052-.005-.134-.014-.225-.021l-.091-.005A12.704 12.704 0 0 0 47.618 5l-.299.001c-.081 0-.152 0-.235.002-.191.004-.398.014-.608.026-.062.004-.134.01-.198.016a9.26 9.26 0 0 0-.497.042 2.971 2.971 0 0 0-.27.031c-.164.017-.325.038-.496.059-.098.015-.195.03-.294.043-.177.029-.353.057-.536.092-.097.018-.194.033-.293.052-.212.043-.422.09-.643.137a13.923 13.923 0 0 0-1.132.295c-.048.012-.097.033-.147.045-.255.08-.514.165-.777.256-.1.036-.202.076-.303.113a19.348 19.348 0 0 0-.99.405c-.218.092-.435.199-.655.304-.11.053-.222.105-.332.165-.239.125-.488.261-.732.403-.08.05-.165.091-.245.142-.328.197-.658.407-.99.634-.031.021-.06.045-.09.066-.292.205-.583.422-.873.652-.095.079-.193.162-.293.24-.223.187-.443.379-.665.579-.111.104-.221.208-.327.31-.213.201-.418.412-.625.63-.105.111-.212.223-.315.336-.222.247-.442.505-.658.771-.08.1-.16.192-.241.296-.296.375-.585.769-.867 1.189-.021.031-.04.066-.058.094-.258.384-.505.789-.757 1.21-.08.138-.155.289-.235.434-.18.325-.359.659-.53 1.006-.088.177-.17.356-.255.54-.159.344-.315.697-.47 1.061-.078.192-.158.38-.233.577-.156.402-.307.82-.451 1.247-.057.174-.124.338-.177.517-.201.613-.39 1.248-.563 1.911l-.019.081a36.345 36.345 0 0 0-.449 1.972c-.045.226-.084.459-.128.684a49.215 49.215 0 0 0-.262 1.54c-.042.276-.079.563-.117.849a39.694 39.694 0 0 0-.183 1.575c-.032.301-.061.598-.088.907a67.202 67.202 0 0 0-.122 1.785c-.015.281-.035.553-.045.841-.039.901-.06 1.825-.06 2.785v.001s1.216 6.877 1.279 13.814c.038 3.855-.287 7.733-1.372 10.466-.435 1.088-.989 2-1.694 2.648-.225.042-.438.089-.653.141-1.155.266-4.922.584-8.732 4.644-2.315 2.471-4.646 6.322-6.414 12.392a8.73 8.73 0 0 0-.315 1.665c-.157 1.675.165 3.373.934 4.827 3.826 7.232 23.929 9.454 40.178 9.453 16.248.001 36.356-2.221 40.176-9.45a8.736 8.736 0 0 0 .935-4.829zM65.198 60.782c-.07.604-.343 1.188-.771 1.743-2.027 2.593-7.726 6.337-14.439 6.337-6.715 0-12.412-3.741-14.442-6.337-.429-.555-.699-1.137-.771-1.743v-.003c.101-.036.332-.116.64-.258.125-.053.266-.123.405-.2 1.228-.643 3.032-1.987 3.032-4.352h.002c1.936 1.916 4.094 3.44 6.395 4.352 1.546.615 3.161.954 4.82.954s3.274-.339 4.82-.954c2.282-.902 4.413-2.402 6.342-4.299a.769.769 0 0 1 .04.021c.046 3.044 3.104 4.38 3.933 4.688 0 .012-.002.03-.006.051zm3.537-22.577c-.305 1.717-.975 3.133-1.685 3.739-.286.238-.58.353-.854.304a.837.837 0 0 1-.432-.224c-1.575 4.89-4.578 9.763-8.371 12.695-2.215 1.705-4.696 2.749-7.32 2.749-2.639 0-5.135-1.058-7.359-2.784-3.773-2.932-6.764-7.79-8.328-12.66a.882.882 0 0 1-.43.224c-.318.057-.666-.105-.991-.434-.66-.664-1.266-2.004-1.554-3.609-.379-2.115-.079-3.982.668-4.518a.798.798 0 0 1 .329-.14c.265-.046.545.054.818.276 0 0 0-.021.004-.062.093-.918 1.317-11.218 9.028-10.504l23.58 12.136 1.915-1.843a.787.787 0 0 1 .189.061c.833.395 1.198 2.357.793 4.594z" />
</svg>