<svg xmlns="http://www.w3.org/2000/svg" viewBox="0 0 24 24">
    <path
        d="m20.8 16.3-2.8-.6-.1-.4c1.9-.3 2.9-.9 2.9-.9.1-.1.2-.2.2-.4s-.1-.3-.2-.4c0 0-1.3-1.1-1.3-4.8 0-3.3-.8-4.9-2.3-4.9H17c-.5-.5-1-.7-1.9-.7-.2 0-.4.1-.4.3-.1.2-.1.4 0 .5.8 1.2.8 2.5 0 3.5-.2.2-.2.5 0 .6.4.5.6 1.1.5 1.7l-.2 1.4c-.1.6-.4 1.1-.8 1.5-.1.1-.1.2-.2.3-.1.5-.3 1-.6 1.5-.1.1-.1.3 0 .4.1.1.2.3.3.3l1.3.3c2.4.6 4 2.7 4 5.1 0 .3.2.5.5.5h4c.3 0 .5-.2.5-.5 0-2.1-1.3-3.8-3.2-4.3zm-6 0-2.8-.6-.2-.8c.7-.7 1.2-1.7 1.4-2.8.4-.2.8-.5.8-1l.2-1.5c0-.4-.1-.7-.3-1-.1-.1-.3-.2-.4-.3l.1-1.3.2-.2c.4-.5.8-1.3.1-2.5-.6-.9-1.6-1.3-3-1.3-.5 0-1.7 0-2.8.7-3.2.1-3.7 1.7-3.7 3.1 0 .3.1 1 .1 1.4-.1.1-.3.2-.4.4-.2.3-.3.6-.3 1L4 11c.1.5.4.9.9 1 .2 1 .6 2 1.3 2.7l-.2 1-2.8.7c-1.9.4-3.2 2.1-3.2 4.1 0 .3.2.5.5.5h17c.3 0 .5-.2.5-.5 0-2-1.3-3.7-3.2-4.2z" />
</svg>