<svg width="40" height="41" viewBox="0 0 40 41" fill="none" xmlns="http://www.w3.org/2000/svg">
<g clip-path="url(#clip0_428_13238)">
<path d="M22.4233 40.0313C32.3267 38.8324 40 30.4002 40 20.1758C40 9.13023 31.0456 0.175781 20 0.175781C8.95444 0.175781 0 9.13023 0 20.1758C0 29.5558 6.45667 37.4269 15.1689 39.588L15.5556 37.9536H21.6667L22.4233 40.0313Z" fill="#0866FF"/>
<path d="M15.1678 39.5876V26.2876H11.04V20.1754H15.1678V17.542C15.1678 10.7343 18.2478 7.58203 24.9278 7.58203C26.1922 7.58203 28.3755 7.82981 29.2722 8.07759V13.6143C28.8 13.5665 27.9755 13.542 26.96 13.542C23.68 13.542 22.4155 14.782 22.4155 18.0143V20.1754H28.9522L27.8322 26.2865H22.4244V40.0309C19.999 40.323 17.5407 40.1728 15.1689 39.5876H15.1678Z" fill="#FEFEFE"/>
</g>
<defs>
<clipPath id="clip0_428_13238">
<rect width="40" height="40" fill="white" transform="translate(0 0.175781)"/>
</clipPath>
</defs>
</svg>
