<svg width="24" height="24" viewBox="0 0 24 24" fill="white" xmlns="http://www.w3.org/2000/svg">
<path d="M0.294861 12.1758C0.294861 5.82478 5.44386 0.675781 11.7949 0.675781C18.1459 0.675781 23.2949 5.82478 23.2949 12.1758C23.2949 18.5268 18.1459 23.6758 11.7949 23.6758C5.44386 23.6758 0.294861 18.5268 0.294861 12.1758ZM2.50486 10.1758C2.2231 11.4919 2.2231 12.8527 2.50486 14.1688L2.80486 14.1758C3.33529 14.1745 3.84347 13.9625 4.21761 13.5865C4.59174 13.2104 4.80119 12.7012 4.79986 12.1708C4.79853 11.6403 4.58655 11.1322 4.21054 10.758C3.83453 10.3839 3.32529 10.1745 2.79486 10.1758H2.50486ZM3.16786 8.19278C4.16071 8.28461 5.08348 8.74394 5.75528 9.48075C6.42707 10.2175 6.79947 11.1787 6.79947 12.1758C6.79947 13.1729 6.42707 14.134 5.75528 14.8708C5.08348 15.6076 4.16071 16.067 3.16786 16.1588C3.64618 17.1921 4.30596 18.1313 5.11586 18.9318C5.47516 17.9815 6.11533 17.1631 6.95117 16.5856C7.78701 16.008 8.7789 15.6987 9.79486 15.6988H13.7949C14.8108 15.6987 15.8027 16.008 16.6386 16.5856C17.4744 17.1631 18.1146 17.9815 18.4739 18.9318C19.2838 18.1313 19.9435 17.1921 20.4219 16.1588C19.429 16.067 18.5062 15.6076 17.8344 14.8708C17.1626 14.134 16.7903 13.1729 16.7903 12.1758C16.7903 11.1787 17.1626 10.2175 17.8344 9.48075C18.5062 8.74394 19.429 8.28461 20.4219 8.19278C19.6609 6.54532 18.4441 5.15025 16.9152 4.17256C15.3864 3.19487 13.6096 2.67547 11.7949 2.67578C9.98015 2.67547 8.20331 3.19487 6.67448 4.17256C5.14566 5.15025 3.92881 6.54532 3.16786 8.19278ZM21.2949 12.1758C21.2953 11.5012 21.2242 10.8284 21.0829 10.1688L20.8179 10.1758H20.7949C20.2644 10.1745 19.7552 10.3839 19.3792 10.758C19.0032 11.1322 18.7912 11.6403 18.7899 12.1708C18.7885 12.7012 18.998 13.2104 19.3721 13.5865C19.7462 13.9625 20.2544 14.1745 20.7849 14.1758L21.0849 14.1688C21.2229 13.5258 21.2949 12.8588 21.2949 12.1758ZM11.7949 21.6758C13.5495 21.6787 15.2704 21.1932 16.7649 20.2738C16.6626 19.559 16.3059 18.9051 15.7603 18.4321C15.2148 17.9591 14.5169 17.6987 13.7949 17.6988H9.79486C9.0728 17.6987 8.37494 17.9591 7.82938 18.4321C7.28381 18.9051 6.92715 19.559 6.82486 20.2738C8.31936 21.1932 10.0402 21.6786 11.7949 21.6758Z" />
</svg>
