<svg width="24" height="23" viewBox="0 0 24 23" fill="white" xmlns="http://www.w3.org/2000/svg">
<path d="M1.78292 2.40278C1.97598 1.75927 2.3713 1.19511 2.91024 0.793961C3.44919 0.392813 4.10307 0.176038 4.77492 0.175781H19.6149C20.9949 0.175781 22.2119 1.08078 22.6079 2.40278L23.4239 5.12178C23.6041 5.72331 23.6957 6.34786 23.6959 6.97578C23.6978 8.34451 23.1582 9.65843 22.1949 10.6308V15.2458C22.1949 16.6008 22.1949 17.7168 22.0759 18.6008C21.9509 19.5288 21.6799 20.3478 21.0229 21.0038C20.3669 21.6608 19.5479 21.9318 18.6199 22.0568C17.7359 22.1768 16.6199 22.1758 15.2659 22.1758H9.12392C7.76992 22.1758 6.65392 22.1758 5.76992 22.0568C4.84192 21.9318 4.02292 21.6608 3.36692 21.0038C2.70992 20.3478 2.43792 19.5288 2.31392 18.6008C2.19392 17.7168 2.19492 16.6008 2.19492 15.2468V10.6758L2.19592 10.6308C1.2327 9.65837 0.693126 8.34449 0.69492 6.97578C0.69492 6.34778 0.78692 5.72378 0.96692 5.12178L1.78292 2.40278ZM10.1949 20.1758H14.1949V16.6758C14.1949 16.5432 14.1422 16.416 14.0485 16.3222C13.9547 16.2285 13.8275 16.1758 13.6949 16.1758H10.6949C10.5623 16.1758 10.4351 16.2285 10.3414 16.3222C10.2476 16.416 10.1949 16.5432 10.1949 16.6758V20.1758ZM16.1949 20.1738C17.1129 20.1688 17.8029 20.1488 18.3539 20.0748C19.0599 19.9798 19.3869 19.8128 19.6089 19.5898C19.8319 19.3678 19.9989 19.0398 20.0939 18.3348C20.1929 17.5998 20.1949 16.6188 20.1949 15.1758V11.8918C19.648 12.0804 19.0734 12.1764 18.4949 12.1758C17.3568 12.1775 16.2497 11.8042 15.3449 11.1138C14.4401 11.8042 13.3331 12.1775 12.1949 12.1758C11.0568 12.1775 9.94973 11.8042 9.04492 11.1138C8.14011 11.8042 7.03308 12.1775 5.89492 12.1758C5.3164 12.1763 4.74184 12.0804 4.19492 11.8918V15.1758C4.19492 16.6178 4.19692 17.5998 4.29492 18.3348C4.39092 19.0408 4.55792 19.3678 4.78092 19.5898C5.00292 19.8128 5.33092 19.9798 6.03592 20.0748C6.58692 20.1488 7.27592 20.1688 8.19492 20.1748V16.6758C8.19492 16.0127 8.45831 15.3769 8.92715 14.908C9.39599 14.4392 10.0319 14.1758 10.6949 14.1758H13.6949C14.358 14.1758 14.9938 14.4392 15.4627 14.908C15.9315 15.3769 16.1949 16.0127 16.1949 16.6758V20.1738ZM4.77592 2.17578C4.27892 2.17578 3.84092 2.50178 3.69792 2.97778L2.88292 5.69778C2.75843 6.11237 2.69509 6.5429 2.69492 6.97578C2.69484 7.6258 2.89272 8.26044 3.26222 8.79522C3.63173 9.33001 4.15534 9.73958 4.76336 9.96944C5.37139 10.1993 6.035 10.2385 6.66587 10.0819C7.29675 9.92532 7.86497 9.5803 8.29492 9.09278C8.38876 8.98637 8.50417 8.90115 8.63348 8.84278C8.76279 8.78441 8.90305 8.75422 9.04492 8.75422C9.1868 8.75422 9.32705 8.78441 9.45636 8.84278C9.58567 8.90115 9.70108 8.98637 9.79492 9.09278C10.0948 9.43371 10.4641 9.70669 10.878 9.89345C11.2919 10.0802 11.7408 10.1765 12.1949 10.1758C12.649 10.1765 13.098 10.0802 13.5119 9.89345C13.9258 9.70669 14.295 9.43371 14.5949 9.09278C14.6888 8.98637 14.8042 8.90115 14.9335 8.84278C15.0628 8.78441 15.203 8.75422 15.3449 8.75422C15.4868 8.75422 15.627 8.78441 15.7564 8.84278C15.8857 8.90115 16.0011 8.98637 16.0949 9.09278C16.5249 9.5803 17.0931 9.92532 17.724 10.0819C18.3548 10.2385 19.0184 10.1993 19.6265 9.96944C20.2345 9.73958 20.7581 9.33001 21.1276 8.79522C21.4971 8.26044 21.695 7.6258 21.6949 6.97578C21.6949 6.54178 21.6319 6.11078 21.5069 5.69578L20.6909 2.97578C20.6212 2.74462 20.4789 2.54204 20.2851 2.39797C20.0914 2.2539 19.8564 2.176 19.6149 2.17578H4.77592Z" />
</svg>
