<svg width="20" height="21" viewBox="0 0 20 21" fill="white" xmlns="http://www.w3.org/2000/svg">
<path d="M9.99992 1.00977C9.67161 1.00977 9.34652 1.07443 9.04321 1.20007C8.7399 1.3257 8.4643 1.50985 8.23215 1.742C8 1.97414 7.81586 2.24974 7.69022 2.55306C7.56458 2.85637 7.49992 3.18146 7.49992 3.50977C7.49992 3.83807 7.56458 4.16316 7.69022 4.46647C7.81586 4.76979 8 5.04539 8.23215 5.27753C8.4643 5.50968 8.7399 5.69383 9.04321 5.81946C9.34652 5.9451 9.67161 6.00977 9.99992 6.00977C10.663 6.00977 11.2988 5.74637 11.7677 5.27753C12.2365 4.80869 12.4999 4.17281 12.4999 3.50977C12.4999 2.84672 12.2365 2.21084 11.7677 1.742C11.2988 1.27316 10.663 1.00977 9.99992 1.00977ZM3.33325 7.67643C2.67021 7.67643 2.03433 7.93982 1.56548 8.40866C1.09664 8.87751 0.833252 9.51339 0.833252 10.1764C0.833252 10.8395 1.09664 11.4754 1.56548 11.9442C2.03433 12.413 2.67021 12.6764 3.33325 12.6764C3.99629 12.6764 4.63218 12.413 5.10102 11.9442C5.56986 11.4754 5.83325 10.8395 5.83325 10.1764C5.83325 9.51339 5.56986 8.87751 5.10102 8.40866C4.63218 7.93982 3.99629 7.67643 3.33325 7.67643ZM9.99992 7.67643C9.33688 7.67643 8.70099 7.93982 8.23215 8.40866C7.76331 8.87751 7.49992 9.51339 7.49992 10.1764C7.49992 10.8395 7.76331 11.4754 8.23215 11.9442C8.70099 12.413 9.33688 12.6764 9.99992 12.6764C10.663 12.6764 11.2988 12.413 11.7677 11.9442C12.2365 11.4754 12.4999 10.8395 12.4999 10.1764C12.4999 9.51339 12.2365 8.87751 11.7677 8.40866C11.2988 7.93982 10.663 7.67643 9.99992 7.67643ZM16.6666 7.67643C16.0035 7.67643 15.3677 7.93982 14.8988 8.40866C14.43 8.87751 14.1666 9.51339 14.1666 10.1764C14.1666 10.8395 14.43 11.4754 14.8988 11.9442C15.3677 12.413 16.0035 12.6764 16.6666 12.6764C17.3296 12.6764 17.9655 12.413 18.4344 11.9442C18.9032 11.4754 19.1666 10.8395 19.1666 10.1764C19.1666 9.51339 18.9032 8.87751 18.4344 8.40866C17.9655 7.93982 17.3296 7.67643 16.6666 7.67643ZM16.6666 1.00977C16.3383 1.00977 16.0132 1.07443 15.7099 1.20007C15.4066 1.3257 15.131 1.50985 14.8988 1.742C14.6667 1.97414 14.4825 2.24974 14.3569 2.55306C14.2312 2.85637 14.1666 3.18146 14.1666 3.50977C14.1666 3.83807 14.2312 4.16316 14.3569 4.46647C14.4825 4.76979 14.6667 5.04539 14.8988 5.27753C15.131 5.50968 15.4066 5.69383 15.7099 5.81946C16.0132 5.9451 16.3383 6.00977 16.6666 6.00977C17.3296 6.00977 17.9655 5.74637 18.4344 5.27753C18.9032 4.80869 19.1666 4.17281 19.1666 3.50977C19.1666 2.84672 18.9032 2.21084 18.4344 1.742C17.9655 1.27316 17.3296 1.00977 16.6666 1.00977ZM3.33325 1.00977C3.00495 1.00977 2.67986 1.07443 2.37654 1.20007C2.07323 1.3257 1.79763 1.50985 1.56548 1.742C1.33334 1.97414 1.14919 2.24974 1.02355 2.55306C0.897916 2.85637 0.833252 3.18146 0.833252 3.50977C0.833252 3.83807 0.897916 4.16316 1.02355 4.46647C1.14919 4.76979 1.33334 5.04539 1.56548 5.27753C1.79763 5.50968 2.07323 5.69383 2.37654 5.81946C2.67986 5.9451 3.00495 6.00977 3.33325 6.00977C3.99629 6.00977 4.63218 5.74637 5.10102 5.27753C5.56986 4.80869 5.83325 4.17281 5.83325 3.50977C5.83325 2.84672 5.56986 2.21084 5.10102 1.742C4.63218 1.27316 3.99629 1.00977 3.33325 1.00977ZM9.99992 14.3431C9.33688 14.3431 8.70099 14.6065 8.23215 15.0753C7.76331 15.5442 7.49992 16.1801 7.49992 16.8431C7.49992 17.5061 7.76331 18.142 8.23215 18.6109C8.70099 19.0797 9.33688 19.3431 9.99992 19.3431C10.663 19.3431 11.2988 19.0797 11.7677 18.6109C12.2365 18.142 12.4999 17.5061 12.4999 16.8431C12.4999 16.1801 12.2365 15.5442 11.7677 15.0753C11.2988 14.6065 10.663 14.3431 9.99992 14.3431ZM16.6666 14.3431C16.0035 14.3431 15.3677 14.6065 14.8988 15.0753C14.43 15.5442 14.1666 16.1801 14.1666 16.8431C14.1666 17.5061 14.43 18.142 14.8988 18.6109C15.3677 19.0797 16.0035 19.3431 16.6666 19.3431C17.3296 19.3431 17.9655 19.0797 18.4344 18.6109C18.9032 18.142 19.1666 17.5061 19.1666 16.8431C19.1666 16.1801 18.9032 15.5442 18.4344 15.0753C17.9655 14.6065 17.3296 14.3431 16.6666 14.3431ZM3.33325 14.3431C2.67021 14.3431 2.03433 14.6065 1.56548 15.0753C1.09664 15.5442 0.833252 16.1801 0.833252 16.8431C0.833252 17.5061 1.09664 18.142 1.56548 18.6109C2.03433 19.0797 2.67021 19.3431 3.33325 19.3431C3.99629 19.3431 4.63218 19.0797 5.10102 18.6109C5.56986 18.142 5.83325 17.5061 5.83325 16.8431C5.83325 16.1801 5.56986 15.5442 5.10102 15.0753C4.63218 14.6065 3.99629 14.3431 3.33325 14.3431Z" />
</svg>
