<svg width="16" height="16" viewBox="0 0 16 16" fill="rgb(96, 103, 112)" xmlns="http://www.w3.org/2000/svg">
<path d="M10.743 2.43294C11.8683 3.55812 12.5006 5.08424 12.5007 6.67558C12.5008 8.26692 11.8687 9.79312 10.7435 10.9184C9.61834 12.0437 8.09221 12.676 6.50087 12.6761C4.90953 12.6762 3.38333 12.0441 2.25802 10.9189C1.13271 9.79375 0.50046 8.26763 0.500366 6.67629C0.500272 5.08495 1.13234 3.55875 2.25752 2.43344C3.3827 1.30812 4.90883 0.675875 6.50017 0.675781C8.09151 0.675687 9.61771 1.30775 10.743 2.43294ZM9.68302 3.49294C8.8391 2.64888 7.69445 2.17465 6.50087 2.17455C5.3073 2.17446 4.16257 2.64852 3.31852 3.49244C2.47447 4.33635 2.00023 5.48101 2.00014 6.67458C2.00005 7.86816 2.4741 9.01288 3.31802 9.85694C4.16525 10.6841 5.30438 11.1441 6.48845 11.1371C7.67252 11.13 8.80611 10.6566 9.64345 9.81936C10.4808 8.98215 10.9544 7.84864 10.9616 6.66457C10.9689 5.4805 10.5091 4.3413 9.68202 3.49394L9.68302 3.49294Z" />
<path d="M10.39 8.92627C10.3121 9.06465 10.2456 9.20913 10.191 9.35827C10.036 9.77527 9.96104 10.2073 10.019 10.6423C10.074 11.0573 10.251 11.4363 10.559 11.7453C10.6949 11.8816 10.8781 11.9606 11.0705 11.9656C11.263 11.9707 11.45 11.9016 11.5929 11.7726C11.7358 11.6435 11.8236 11.4645 11.8382 11.2725C11.8527 11.0806 11.7929 10.8903 11.671 10.7413L11.62 10.6843C11.5551 10.6201 11.5148 10.5351 11.506 10.4443C11.485 10.2893 11.52 10.0883 11.596 9.88127C11.627 9.80027 11.656 9.73627 11.676 9.69927L11.688 9.67727C11.7374 9.59197 11.7695 9.49779 11.7825 9.40009C11.7955 9.30239 11.7891 9.2031 11.7637 9.10787C11.7383 9.01265 11.6944 8.92335 11.6345 8.84509C11.5746 8.76684 11.4998 8.70114 11.4145 8.65177C11.3292 8.60239 11.2351 8.57029 11.1374 8.55732C11.0397 8.54434 10.9404 8.55073 10.8451 8.57613C10.7499 8.60152 10.6606 8.64543 10.5824 8.70533C10.5041 8.76524 10.4384 8.83997 10.389 8.92526L10.39 8.92627Z" />
<path d="M9.55703 11.8343C9.59503 11.8163 9.64703 11.7943 9.70703 11.7703C9.91403 11.6933 10.115 11.6583 10.269 11.6783C10.349 11.6883 10.412 11.7123 10.467 11.7553L10.508 11.7913C10.6502 11.9238 10.8382 11.9959 11.0326 11.9925C11.2269 11.989 11.4122 11.9103 11.5497 11.7729C11.6871 11.6355 11.7658 11.4501 11.7692 11.2558C11.7726 11.0615 11.7005 10.8735 11.568 10.7313C11.2711 10.4329 10.8828 10.2428 10.465 10.1913C10.03 10.1333 9.59803 10.2093 9.18103 10.3663C8.99203 10.4363 8.84503 10.5093 8.74803 10.5663C8.58746 10.6604 8.46762 10.8108 8.41178 10.9883C8.35594 11.1659 8.36811 11.3578 8.44591 11.5269C8.52371 11.6959 8.66158 11.83 8.83274 11.9031C9.0039 11.9762 9.19612 11.983 9.37203 11.9223L9.43803 11.8953L9.55703 11.8343Z"/>
<path d="M13.463 15.3181L13.423 15.2741L9.84903 11.0821C9.25003 10.3791 10.204 9.42612 10.907 10.0251L15.098 13.5991L15.142 13.6391C15.2 13.6981 15.264 13.7761 15.324 13.8791C15.573 14.3041 15.573 14.8391 15.17 15.2891L15.113 15.3461C14.663 15.7491 14.127 15.7491 13.702 15.5001C13.6146 15.4499 13.5339 15.3888 13.462 15.3181H13.463ZM14.08 14.7021L14.524 14.2581C14.5054 14.2381 14.4842 14.2206 14.461 14.2061C14.368 14.1511 14.198 14.1511 14.111 14.2301L14.319 14.4621L14.526 14.2561L14.532 14.2631L14.312 14.5201L14.286 14.4961L14.319 14.4621L14.344 14.4891L14.087 14.7091L14.08 14.7021ZM14.053 14.2871C13.975 14.3751 13.975 14.5441 14.03 14.6371C14.0442 14.6603 14.0613 14.6814 14.081 14.7001L14.286 14.4961L14.053 14.2871Z" />
</svg>
