<svg xmlns="http://www.w3.org/2000/svg" viewBox="0 0 327.6 327.6">
    <path
        d="M30 67.8h63.2v-9.6c0-12 9.6-21.6 21.6-21.6h98c12 0 21.6 9.6 21.6 21.6v9.6h63.2c16.4 0 30 13.6 30 30V261c0 16.4-13.6 30-30 30H30c-16.4 0-30-13.6-30-30V97.8c0-16.8 13.6-30 30-30z" />
    <path class="lens"
        d="M209.2 134.2c-11.6-11.6-27.6-18.4-45.2-18.4s-33.6 7.2-45.2 18.8c-11.6 11.6-18.8 27.6-18.8 45.2s7.2 33.6 18.8 45.2 27.6 18.8 45.2 18.8 33.6-7.2 45.2-18.8c11.6-11.6 18.8-27.6 18.8-45.2-.4-18-7.6-34-18.8-45.6zM164 99c22 0 42.4 8.8 56.8 23.6 14.4 14.4 23.6 34.8 23.6 56.8s-8.8 42.4-23.6 56.8c-14.4 14.4-34.8 23.6-56.8 23.6s-42.4-8.8-56.8-23.6c-14.4-14.4-23.6-34.8-23.6-56.8s8.8-42.4 23.6-56.8C121.6 107.8 142 99 164 99z" />
    <circle cx="280.8" cy="114" r="16" />
</svg>